P3
9 3
255
32 32 32 16 0 16 4 4 4 32 32 32 16 0 16 4 4 4 32 32 32 16 0 16 4 4 4 
48 48 48 32 16 32 8 8 8 48 48 48 32 16 32 8 8 8 48 48 48 32 16 32 8 8 8 
56 48 56 0 16 0 48 48 48 56 48 56 0 16 0 48 48 48 56 48 56 0 16 0 48 48 48